<svg width="900" height="400" viewBox="0 0 900 400" fill="none" xmlns="http://www.w3.org/2000/svg">
<rect width="900" height="400" fill="#4FC08D"/>
<path d="M358 100H275.167L258 134.167L240.833 100H158L258 300L358 100ZM258 220.019L201 105.967H237.917L258 146.198L278.083 105.967H315L258 220.019Z" fill="#FFF7F7"/>
<g clip-path="url(#clip0)">
<path d="M393.481 176.106L431.462 154.162C431.929 153.892 432.458 153.75 432.997 153.75C433.536 153.75 434.065 153.892 434.531 154.162L472.512 176.106C472.979 176.378 473.366 176.767 473.635 177.236C473.904 177.704 474.045 178.235 474.044 178.775V222.625C474.043 223.165 473.901 223.695 473.633 224.163C473.364 224.631 472.978 225.021 472.512 225.294L434.531 247.2C434.065 247.47 433.536 247.612 432.997 247.612C432.458 247.612 431.929 247.47 431.462 247.2L393.481 225.294C393.014 225.022 392.627 224.632 392.359 224.164C392.09 223.696 391.949 223.165 391.95 222.625V178.775C391.95 177.669 392.544 176.656 393.481 176.106V176.106ZM531.769 196.094L486.387 117.125C484.731 114.256 481.706 112.175 478.381 112.175H387.631C384.337 112.175 381.281 114.256 379.625 117.125L334.244 195.9C333.445 197.321 333.025 198.923 333.025 200.553C333.025 202.183 333.445 203.785 334.244 205.206L379.662 283.525C381.287 286.394 384.344 287.825 387.637 287.825H478.419C481.712 287.825 484.737 286.425 486.394 283.556L531.775 205.137C532.588 203.768 533.017 202.205 533.017 200.612C533.017 199.02 532.588 197.457 531.775 196.087L531.769 196.094ZM494.2 234.05C494.182 234.627 494.017 235.19 493.721 235.686C493.425 236.181 493.006 236.593 492.506 236.881L434.656 270.212C434.162 270.498 433.602 270.648 433.031 270.648C432.461 270.648 431.9 270.498 431.406 270.212L373.525 236.881C373.027 236.59 372.611 236.178 372.315 235.683C372.019 235.188 371.852 234.626 371.831 234.05V167.319C371.831 166.175 372.512 165.1 373.525 164.519L431.344 131.15C431.843 130.879 432.401 130.737 432.969 130.737C433.536 130.737 434.095 130.879 434.594 131.15L492.475 164.519C492.974 164.808 493.391 165.22 493.687 165.716C493.984 166.211 494.149 166.773 494.169 167.35L494.2 234.05Z" fill="white"/>
</g>
<path d="M612.419 295.25C612.419 297.887 610.3 300 607.669 300H560.044C553.694 300 553.694 290.463 560.044 290.463H607.669C610.306 290.463 612.419 292.612 612.419 295.25V295.25ZM607.669 271.419H598.131C591.781 271.419 591.781 280.956 598.131 280.956H607.669C614.019 280.956 614.019 271.419 607.669 271.419ZM560.044 280.956H579.088C585.438 280.956 585.438 271.419 579.088 271.419H560.044C553.694 271.419 553.694 280.956 560.044 280.956V280.956ZM607.669 252.375H560.044C553.694 252.375 553.694 261.913 560.044 261.913H607.669C614.019 261.913 614.019 252.375 607.669 252.375ZM674.331 233.331H588.619C582.269 233.331 582.269 242.869 588.619 242.869H674.331C680.681 242.869 680.681 233.331 674.331 233.331ZM560.044 242.869H569.581C575.931 242.869 575.931 233.331 569.581 233.331H560.044C553.694 233.331 553.694 242.869 560.044 242.869ZM702.913 214.287H674.331C667.981 214.287 667.981 223.794 674.331 223.794H702.913C709.263 223.794 709.263 214.287 702.913 214.287ZM617.206 223.794H655.294C661.644 223.794 661.644 214.287 655.294 214.287H617.206C610.856 214.287 610.856 223.794 617.206 223.794V223.794ZM560.044 223.794H598.131C604.481 223.794 604.481 214.287 598.131 214.287H560.044C553.694 214.287 553.694 223.794 560.044 223.794V223.794ZM712.419 195.25H636.244C629.894 195.25 629.894 204.756 636.244 204.756H712.419C718.769 204.756 718.769 195.25 712.419 195.25ZM621.956 200C621.956 198.74 621.456 197.532 620.565 196.641C619.674 195.75 618.466 195.25 617.206 195.25H588.625C582.275 195.25 582.275 204.756 588.625 204.756H617.206C618.466 204.756 619.674 204.256 620.565 203.365C621.456 202.474 621.956 201.266 621.956 200.006V200ZM560.044 204.75H569.581C575.931 204.75 575.931 195.244 569.581 195.244H560.044C553.694 195.244 553.694 204.75 560.044 204.75V204.75ZM721.956 176.206H674.331C667.981 176.206 667.981 185.712 674.331 185.712H721.956C728.306 185.712 728.306 176.206 721.956 176.206ZM560.044 185.712H607.669C614.019 185.712 614.019 176.206 607.669 176.206H560.044C553.694 176.206 553.694 185.712 560.044 185.712V185.712ZM669.581 161.913C669.581 164.519 671.7 166.663 674.331 166.663H721.956C728.306 166.663 728.306 157.125 721.956 157.125H674.331C673.705 157.127 673.085 157.252 672.507 157.493C671.929 157.735 671.404 158.088 670.963 158.533C670.522 158.978 670.173 159.505 669.936 160.085C669.698 160.665 669.578 161.286 669.581 161.913V161.913ZM598.131 157.131C591.781 157.131 591.781 166.669 598.131 166.669H607.669C614.019 166.669 614.019 157.131 607.669 157.131H598.131ZM560.044 166.669H579.088C585.438 166.669 585.438 157.131 579.088 157.131H560.044C553.694 157.131 553.694 166.669 560.044 166.669V166.669ZM698.131 142.869C698.131 145.475 700.281 147.619 702.919 147.619H712.425C718.775 147.619 718.775 138.081 712.425 138.081H702.919C702.292 138.083 701.672 138.208 701.094 138.45C700.516 138.691 699.992 139.045 699.55 139.489C699.109 139.934 698.76 140.462 698.523 141.041C698.286 141.621 698.166 142.242 698.169 142.869H698.131ZM688.625 142.869C688.625 141.605 688.126 140.393 687.236 139.497C686.346 138.6 685.138 138.091 683.875 138.081H645.756C639.406 138.081 639.406 147.619 645.756 147.619H683.844C685.107 147.619 686.319 147.12 687.216 146.23C688.113 145.34 688.621 144.132 688.631 142.869H688.625ZM560.044 147.625H626.713C633.063 147.625 633.063 138.087 626.713 138.087H560.044C553.694 138.087 553.694 147.625 560.044 147.625ZM602.913 123.794C602.913 126.431 605.031 128.581 607.663 128.581H702.913C709.263 128.581 709.263 119.044 702.913 119.044H607.663C606.403 119.044 605.195 119.544 604.304 120.435C603.413 121.326 602.913 122.534 602.913 123.794V123.794ZM560.044 128.581H588.625C594.975 128.581 594.975 119.044 588.625 119.044H560.044C553.694 119.044 553.694 128.581 560.044 128.581V128.581ZM560.044 109.538H674.331C680.681 109.538 680.681 100 674.331 100H560.044C553.694 100 553.694 109.538 560.044 109.538V109.538Z" fill="white"/>
<defs>
<clipPath id="clip0">
<rect x="333" y="100" width="200" height="200" fill="white"/>
</clipPath>
</defs>
</svg>
